# xmcd
#
# Track frame offsets:
#	150
#	20540
#	32906
#	48632
#	63770
#	80293
#	96046
#	121554
#	143277
#	147805
#	177770
#	199524
#
# Disc length: 2958 seconds
#
# Revision: 0
# Processed by: cddbd v1.5.2PL0 Copyright (c) Steve Scherf et al.
# Submitted via: EasyCDDAExtractor 12.0.1.1
#
DISCID=8e0b8c0c
DTITLE=Jenny Arean - In Concert...
DYEAR=2008
DGENRE=Vocal
TTITLE0=Geluk bestaat niet
TTITLE1=Zin
TTITLE2=Doe ik het goed
TTITLE3=Foto's
TTITLE4=Bijna
TTITLE5=De mooie dingen
TTITLE6=De begrafenis van Manke Nelis
TTITLE7=Het is over
TTITLE8=Korting...
TTITLE9=Wat heb ik over
TTITLE10=Amsterdams parfum
TTITLE11=Zing dan
EXTD=
EXTT0=
EXTT1=
EXTT2=
EXTT3=
EXTT4=
EXTT5=
EXTT6=
EXTT7=
EXTT8=
EXTT9=
EXTT10=
EXTT11=
PLAYORDER=
